<svg width="40" height="39" viewBox="0 0 40 39" fill="none" xmlns="http://www.w3.org/2000/svg">
<path d="M6.80349 37.2453C9.63087 37.2453 11.9229 35.3655 11.9229 33.0466C11.9229 30.7278 9.63087 28.848 6.80349 28.848C3.97612 28.848 1.68408 30.7278 1.68408 33.0466C1.68408 35.3655 3.97612 37.2453 6.80349 37.2453Z" stroke="currentColor" stroke-linejoin="round"/>
<path d="M29.9846 32.3894C32.812 32.3894 35.1041 30.5096 35.1041 28.1908C35.1041 25.8719 32.812 23.9921 29.9846 23.9921C27.1573 23.9921 24.8652 25.8719 24.8652 28.1908C24.8652 30.5096 27.1573 32.3894 29.9846 32.3894Z" stroke="currentColor" stroke-linejoin="round"/>
<path d="M35.1042 28.1908V1.75475L11.9199 9.57772V33.0466" stroke="currentColor" stroke-linejoin="round"/>
<path d="M11.9199 19.0789L35.1042 11.358" stroke="currentColor" stroke-linejoin="round"/>
</svg>
