<svg width="36" height="37" viewBox="0 0 36 37" fill="none" xmlns="http://www.w3.org/2000/svg">
<g clip-path="url(#clip0_241_115)">
<path d="M5.62 35.99C8.45 35.99 10.74 34.11 10.74 31.79C10.74 29.47 8.45 27.59 5.62 27.59C2.79 27.59 0.5 29.47 0.5 31.79C0.5 34.11 2.79 35.99 5.62 35.99Z" stroke="currentColor" stroke-linejoin="round"/>
<path d="M30.7102 30.83C32.5902 30.21 33.9202 28.7 33.9202 26.93C33.9202 24.61 31.6302 22.73 28.8002 22.73C26.7802 22.73 25.0302 23.69 24.2002 25.09" stroke="currentColor" stroke-linejoin="round"/>
<path d="M11.2402 17.7899V31.7999H10.2402V16.9399L11.2402 17.7899Z" fill="currentColor"/>
<path d="M33.9202 26.94V0.5L10.7402 8.32V13.21" stroke="currentColor" stroke-linejoin="round"/>
<path d="M14.5898 16.54L33.9198 10.1" stroke="currentColor" stroke-linejoin="round"/>
<path d="M0.5 4.68994L34.54 33.7899" stroke="currentColor" stroke-linecap="round" stroke-linejoin="round"/>
</g>
<defs>
<clipPath id="clip0_241_115">
<rect width="35.04" height="36.49" fill="white"/>
</clipPath>
</defs>
</svg>
