<svg width="54" height="54" viewBox="0 0 54 54" fill="none" xmlns="http://www.w3.org/2000/svg">
<path d="M41.8027 26.6601C43.6111 26.6601 45.077 23.7775 45.077 20.2216C45.077 16.6658 43.6111 13.7832 41.8027 13.7832C39.9943 13.7832 38.5283 16.6658 38.5283 20.2216C38.5283 23.7775 39.9943 26.6601 41.8027 26.6601Z" stroke="currentColor" stroke-width="2" stroke-miterlimit="10" stroke-linecap="round"/>
<path d="M52.1299 20.2216C52.1299 30.3614 47.5054 38.5795 41.8022 38.5795C36.0991 38.5795 31.4746 30.3614 31.4746 20.2216C31.4746 10.0818 36.0956 1.86725 41.8022 1.86725C47.5089 1.86725 52.1299 10.0853 52.1299 20.2216Z" stroke="currentColor" stroke-width="2" stroke-miterlimit="10" stroke-linecap="round"/>
<path d="M41.8027 38.5795H12.1977C6.4911 38.5795 1.87012 30.3614 1.87012 20.2216C1.87012 10.0818 6.4911 1.86725 12.1977 1.86725H41.8027C36.096 1.86725 31.475 10.0853 31.475 20.2216C31.475 30.358 36.096 38.5795 41.8027 38.5795Z" stroke="currentColor" stroke-width="2" stroke-miterlimit="10" stroke-linecap="round"/>
<path d="M52.1299 20.2216V48.2371C52.1299 50.3879 50.3831 52.1293 48.2257 52.1293H21.7142C19.5568 52.1293 17.8101 50.3879 17.8101 48.2371V43.1134" stroke="currentColor" stroke-width="2" stroke-miterlimit="10" stroke-linecap="round"/>
</svg>
